<svg width="20" height="21" viewBox="0 0 20 21" fill="none" xmlns="http://www.w3.org/2000/svg">
<path d="M8.29268 2.56098C8.69679 2.56098 9.02439 2.90495 9.02439 3.32927V11.5244H16.8293C17.1997 11.5244 17.5058 11.8134 17.5543 12.1884L17.561 12.2927C17.561 17.3845 13.6298 21 8.78049 21C3.93116 21 0 16.8723 0 11.7805C0 6.68869 3.44335 2.56098 8.29268 2.56098ZM7.56098 4.13546L7.35717 4.15977C3.75785 4.64207 1.46341 7.87012 1.46341 11.7805C1.46341 16.0237 4.73938 19.4634 8.78049 19.4634C12.5046 19.4634 15.579 17.0543 16.0383 13.275L16.0605 13.061H8.29268C7.92225 13.061 7.61611 12.7719 7.56766 12.3969L7.56098 12.2927V4.13546ZM11.2195 0C16.0688 0 20 4.12772 20 9.21951C20 9.64383 19.6724 9.9878 19.2683 9.9878H11.2195C10.8154 9.9878 10.4878 9.64383 10.4878 9.21951V0.768293C10.4878 0.343976 10.8154 0 11.2195 0ZM11.9512 1.57449V8.45122H18.4995L18.4773 8.23722C18.0571 4.77958 15.448 2.04005 12.155 1.59879L11.9512 1.57449Z" fill="#212121"/>
</svg>
