<svg width="20" height="17" viewBox="0 0 20 17" fill="none" xmlns="http://www.w3.org/2000/svg">
<path d="M12.0024 0H18.9999C19.5128 0 19.9355 0.468814 19.9933 1.07279L20 1.21442V9.71534C20 10.386 19.5522 10.9298 18.9999 10.9298C18.487 10.9298 18.0643 10.4609 18.0065 9.85696L17.9998 9.71534L17.999 4.14602L10.7061 13.0029C10.3458 13.4404 9.77891 13.4743 9.38656 13.1045L9.29233 13.0036L6.99608 10.2202L1.70741 16.6442C1.3169 17.1185 0.683668 17.1186 0.293038 16.6444C-0.0675429 16.2067 -0.0953659 15.5179 0.20963 15.0414L0.292812 14.927L6.28805 7.64475C6.64834 7.20712 7.21528 7.17312 7.60768 7.54298L7.70192 7.64386L9.99829 10.4275L16.5838 2.42883H12.0024C11.4895 2.42883 11.0668 1.96002 11.009 1.35604L11.0023 1.21442C11.0023 0.59162 11.3884 0.0783212 11.8858 0.00817023L12.0024 0H18.9999H12.0024Z" fill="#05BC39"/>
</svg>
