<svg width="49" height="34" viewBox="0 0 49 34" fill="none" xmlns="http://www.w3.org/2000/svg">
<path d="M48.6575 0.0368029H35.9301C35.8572 0.0368029 35.7478 0.0735962 35.7113 0.147183L19.0819 17.5504C18.9725 17.6608 18.7902 17.6976 18.6443 17.5872C18.4984 17.4769 18.4984 17.2929 18.6078 17.1457L24.5886 8.86721C24.698 8.75683 24.6615 8.57286 24.5521 8.46248L16.2009 0.11039C16.128 0.0368029 16.0551 9.53674e-06 15.9821 9.53674e-06C15.9092 9.53674e-06 15.8362 0.0368029 15.7633 0.11039L0.0820521 16.7778C-0.0273521 16.8882 -0.0273521 17.1089 0.0820521 17.2193L15.7633 33.8131C15.8727 33.9235 16.0915 33.9603 16.2009 33.8131C17.1491 32.9669 20.3583 29.6187 20.5042 29.4715L48.8763 0.588703C48.9857 0.478323 48.9857 0.367943 48.9492 0.257563C48.9128 0.11039 48.8034 0.0368029 48.6575 0.0368029ZM27.6154 25.277C27.506 25.1667 27.506 24.9459 27.6154 24.8355L33.9244 18.3967C33.9973 18.3231 34.0703 18.2863 34.1432 18.2863C34.2161 18.2863 34.2891 18.3231 34.362 18.3967L48.9128 33.482C48.9857 33.5923 49.0222 33.7027 48.9857 33.8131C48.9492 33.9235 48.8398 33.9971 48.694 33.9971H36.6595C35.6749 33.9971 35.9301 34.0706 35.3466 33.482L27.6154 25.277Z" fill="white"/>
</svg>
