<svg width="110" height="108" viewBox="0 0 110 108" fill="none" xmlns="http://www.w3.org/2000/svg">
<path d="M0 2.88V0H2.916V2.88H0Z" fill="white"/>
<path d="M15.2304 2.88V0H18.1464V2.88H15.2304Z" fill="white"/>
<path d="M30.4608 2.88V0H33.3768V2.88H30.4608Z" fill="white"/>
<path d="M45.6912 2.88V0H48.6072V2.88H45.6912Z" fill="white"/>
<path d="M60.9216 2.88V0H63.8376V2.88H60.9216Z" fill="white"/>
<path d="M76.1519 2.88V0H79.0679V2.88H76.1519Z" fill="white"/>
<path d="M91.3823 2.88V0H94.2983V2.88H91.3823Z" fill="white"/>
<path d="M106.613 2.88V0H109.529V2.88H106.613Z" fill="white"/>
<path d="M0 23.88V21H2.916V23.88H0Z" fill="white"/>
<path d="M15.2304 23.88V21H18.1464V23.88H15.2304Z" fill="white"/>
<path d="M30.4608 23.88V21H33.3768V23.88H30.4608Z" fill="white"/>
<path d="M45.6912 23.88V21H48.6072V23.88H45.6912Z" fill="white"/>
<path d="M60.9216 23.88V21H63.8376V23.88H60.9216Z" fill="white"/>
<path d="M76.1519 23.88V21H79.0679V23.88H76.1519Z" fill="white"/>
<path d="M91.3823 23.88V21H94.2983V23.88H91.3823Z" fill="white"/>
<path d="M106.613 23.88V21H109.529V23.88H106.613Z" fill="white"/>
<path d="M0 44.88V42H2.916V44.88H0Z" fill="white"/>
<path d="M15.2304 44.88V42H18.1464V44.88H15.2304Z" fill="white"/>
<path d="M30.4608 44.88V42H33.3768V44.88H30.4608Z" fill="white"/>
<path d="M45.6912 44.88V42H48.6072V44.88H45.6912Z" fill="white"/>
<path d="M60.9216 44.88V42H63.8376V44.88H60.9216Z" fill="white"/>
<path d="M76.1519 44.88V42H79.0679V44.88H76.1519Z" fill="white"/>
<path d="M91.3823 44.88V42H94.2983V44.88H91.3823Z" fill="white"/>
<path d="M106.613 44.88V42H109.529V44.88H106.613Z" fill="white"/>
<path d="M0 65.88V63H2.916V65.88H0Z" fill="white"/>
<path d="M15.2304 65.88V63H18.1464V65.88H15.2304Z" fill="white"/>
<path d="M30.4608 65.88V63H33.3768V65.88H30.4608Z" fill="white"/>
<path d="M45.6912 65.88V63H48.6072V65.88H45.6912Z" fill="white"/>
<path d="M60.9216 65.88V63H63.8376V65.88H60.9216Z" fill="white"/>
<path d="M76.1519 65.88V63H79.0679V65.88H76.1519Z" fill="white"/>
<path d="M91.3823 65.88V63H94.2983V65.88H91.3823Z" fill="white"/>
<path d="M106.613 65.88V63H109.529V65.88H106.613Z" fill="white"/>
<path d="M0 86.88V84H2.916V86.88H0Z" fill="white"/>
<path d="M15.2304 86.88V84H18.1464V86.88H15.2304Z" fill="white"/>
<path d="M30.4608 86.88V84H33.3768V86.88H30.4608Z" fill="white"/>
<path d="M45.6912 86.88V84H48.6072V86.88H45.6912Z" fill="white"/>
<path d="M60.9216 86.88V84H63.8376V86.88H60.9216Z" fill="white"/>
<path d="M76.1519 86.88V84H79.0679V86.88H76.1519Z" fill="white"/>
<path d="M91.3823 86.88V84H94.2983V86.88H91.3823Z" fill="white"/>
<path d="M106.613 86.88V84H109.529V86.88H106.613Z" fill="white"/>
<path d="M0 107.88V105H2.916V107.88H0Z" fill="white"/>
<path d="M15.2304 107.88V105H18.1464V107.88H15.2304Z" fill="white"/>
<path d="M30.4608 107.88V105H33.3768V107.88H30.4608Z" fill="white"/>
<path d="M45.6912 107.88V105H48.6072V107.88H45.6912Z" fill="white"/>
<path d="M60.9216 107.88V105H63.8376V107.88H60.9216Z" fill="white"/>
<path d="M76.1519 107.88V105H79.0679V107.88H76.1519Z" fill="white"/>
<path d="M91.3823 107.88V105H94.2983V107.88H91.3823Z" fill="white"/>
<path d="M106.613 107.88V105H109.529V107.88H106.613Z" fill="white"/>
</svg>
