<svg width="24" height="19" viewBox="0 0 24 19" fill="none" xmlns="http://www.w3.org/2000/svg">
<path d="M14.8797 7.25201C16.0073 7.25201 16.9214 8.06372 16.9214 9.06501V13.9849C16.9214 16.5603 14.5703 18.648 11.6701 18.648C8.76997 18.648 6.41892 16.5603 6.41892 13.9849V9.06501C6.41892 8.06372 7.333 7.25201 8.46058 7.25201H14.8797ZM14.8797 8.80601H8.46058C8.2995 8.80601 8.16892 8.92197 8.16892 9.06501V13.9849C8.16892 15.702 9.73647 17.094 11.6701 17.094C13.6038 17.094 15.1714 15.702 15.1714 13.9849V9.06501C15.1714 8.92197 15.0408 8.80601 14.8797 8.80601ZM2.04167 7.25201L5.9865 7.25104C5.58589 7.6814 5.32495 8.21804 5.26531 8.80621L2.04167 8.80601C1.88058 8.80601 1.75 8.92197 1.75 9.06501V12.4307C1.75 13.8619 3.05648 15.022 4.66811 15.022C4.90144 15.022 5.12836 14.9977 5.34586 14.9518C5.44468 15.4738 5.62515 15.9718 5.87401 16.4351C5.49007 16.5274 5.08549 16.576 4.66811 16.576C2.08999 16.576 0 14.7201 0 12.4307V9.06501C0 8.06372 0.914085 7.25201 2.04167 7.25201ZM17.3538 7.25104L21.2917 7.25201C22.4193 7.25201 23.3333 8.06372 23.3333 9.06501V12.432C23.3333 14.7207 21.244 16.576 18.6667 16.576C18.2508 16.576 17.8477 16.5277 17.464 16.4371C17.7147 15.9728 17.8953 15.4749 17.9959 14.9527C18.2107 14.9981 18.4355 15.022 18.6667 15.022C20.2775 15.022 21.5833 13.8624 21.5833 12.432V9.06501C21.5833 8.92197 21.4528 8.80601 21.2917 8.80601L18.075 8.80621C18.0153 8.21804 17.7544 7.6814 17.3538 7.25104ZM11.6667 0C13.5997 0 15.1667 1.3915 15.1667 3.108C15.1667 4.82451 13.5997 6.21601 11.6667 6.21601C9.73367 6.21601 8.16667 4.82451 8.16667 3.108C8.16667 1.3915 9.73367 0 11.6667 0ZM19.25 1.036C20.8608 1.036 22.1667 2.19559 22.1667 3.62601C22.1667 5.05643 20.8608 6.21601 19.25 6.21601C17.6392 6.21601 16.3333 5.05643 16.3333 3.62601C16.3333 2.19559 17.6392 1.036 19.25 1.036ZM4.08333 1.036C5.69416 1.036 7 2.19559 7 3.62601C7 5.05643 5.69416 6.21601 4.08333 6.21601C2.4725 6.21601 1.16667 5.05643 1.16667 3.62601C1.16667 2.19559 2.4725 1.036 4.08333 1.036ZM11.6667 1.554C10.7002 1.554 9.91667 2.24975 9.91667 3.108C9.91667 3.96626 10.7002 4.66201 11.6667 4.66201C12.6332 4.66201 13.4167 3.96626 13.4167 3.108C13.4167 2.24975 12.6332 1.554 11.6667 1.554ZM19.25 2.59C18.6057 2.59 18.0833 3.05384 18.0833 3.62601C18.0833 4.19817 18.6057 4.66201 19.25 4.66201C19.8943 4.66201 20.4167 4.19817 20.4167 3.62601C20.4167 3.05384 19.8943 2.59 19.25 2.59ZM4.08333 2.59C3.439 2.59 2.91667 3.05384 2.91667 3.62601C2.91667 4.19817 3.439 4.66201 4.08333 4.66201C4.72767 4.66201 5.25 4.19817 5.25 3.62601C5.25 3.05384 4.72767 2.59 4.08333 2.59Z" fill="#121B30"/>
</svg>
