<svg width="23" height="23" viewBox="0 0 23 23" fill="none" xmlns="http://www.w3.org/2000/svg">
<path d="M6.81482 2.98139L10.6481 1.70361L16.6111 2.55547L19.5926 5.96287L21.2963 9.79621V14.0555L19.1667 17.8888L14.4815 20.8703L10.6481 21.2962L7.24074 20.0184H5.53704L2.12963 20.8703L2.98148 16.611L1.7037 12.3518L2.55556 7.66658L6.81482 2.98139Z" fill="white"/>
<path d="M14.616 12.7603C14.8608 12.8496 16.1735 13.4952 16.4404 13.6289C16.7073 13.7627 16.8853 13.8294 16.9519 13.9407C17.0188 14.0522 17.0188 14.5866 16.7964 15.2103C16.5737 15.8339 15.5073 16.4031 14.9943 16.4798C14.5342 16.5485 13.9523 16.5772 13.3127 16.374C12.9249 16.2509 12.4277 16.0868 11.7907 15.8115C9.11263 14.6552 7.36344 11.9586 7.22999 11.7804L7.2276 11.7772C7.08554 11.5875 6.13989 10.3251 6.13989 9.01861C6.13989 7.70452 6.82951 7.05872 7.07417 6.79143C7.31896 6.524 7.60823 6.45728 7.78617 6.45728C7.96423 6.45728 8.14229 6.45885 8.29785 6.46662C8.46184 6.47478 8.68175 6.4045 8.89864 6.92488C9.12106 7.45959 9.65498 8.77369 9.72158 8.90727C9.78843 9.04085 9.83305 9.19681 9.74395 9.375C9.65498 9.55307 9.36558 9.92933 9.07657 10.2882C8.95813 10.4351 8.80388 10.5657 8.95944 10.8331C9.11526 11.1002 9.65104 11.9745 10.4446 12.6824C11.4645 13.592 12.3246 13.874 12.5917 14.0076C12.8587 14.1413 13.0143 14.1189 13.1701 13.9407C13.3259 13.7627 13.8375 13.1612 14.0155 12.894C14.1933 12.6269 14.3715 12.6712 14.616 12.7603Z" fill="#4713DC"/>
<path fill-rule="evenodd" clip-rule="evenodd" d="M19.1273 3.84108C17.11 1.82144 14.4272 0.708704 11.5691 0.70752C5.67968 0.70752 0.886549 5.50052 0.88418 11.3915C0.88339 13.2747 1.37534 15.113 2.31041 16.7333L0.794556 22.27L6.45879 20.7842C8.01952 21.6355 9.77661 22.0842 11.5648 22.0847H11.5692C17.458 22.0847 22.2516 17.2913 22.2539 11.4001C22.2551 8.54498 21.1447 5.86059 19.1273 3.84108ZM11.5691 20.2802H11.5654C9.97191 20.2796 8.40908 19.8513 7.04536 19.0424L6.72122 18.8498L3.35997 19.7316L4.25714 16.4544L4.04591 16.1184C3.1569 14.7045 2.68746 13.0702 2.68825 11.3922C2.69009 6.49573 6.6741 2.51212 11.5726 2.51212C13.9447 2.5129 16.1746 3.43784 17.8512 5.11649C19.5279 6.79513 20.4507 9.0264 20.4499 11.3994C20.4478 16.2962 16.4641 20.2802 11.5691 20.2802Z" fill="white"/>
</svg>
